---
title: 群星.1995-爱情，勿语【可登】【WAV+CUE】
date: 2022-12-10 13:20:02
categories: WAV车载音乐、镜像
tags: 华语中文
---
# 群星.1995-爱情，勿语【可登】【WAV+CUE】

TITLE "爱情，勿语"
FILE "群星.-.[爱情，勿语](1995)[WAV].wav" WAVE
TRACK 01 AUDIO
TITLE "关于爱情"
PERFORMER "马玉芬&伍思凯"
INDEX 01 00:00:00
TRACK 02 AUDIO
TITLE "我和你"
PERFORMER "郑怡&伍思凯"
INDEX 00 03:57:37
INDEX 01 04:00:37
TRACK 03 AUDIO
TITLE "从来都没有"
PERFORMER "曲佑良&郑怡"
INDEX 00 07:51:00
INDEX 01 07:54:00
TRACK 04 AUDIO
TITLE "为你表演"
PERFORMER "曾庆瑜&钮大可"
INDEX 00 11:33:37
INDEX 01 11:36:37
TRACK 05 AUDIO
TITLE "为何我俩依然陌生"
PERFORMER "Richie Walker & 马玉芬"
INDEX 00 15:33:62
INDEX 01 15:36:62
TRACK 06 AUDIO
TITLE "Love So Right"
PERFORMER "马玉芬&黄大炜"
INDEX 00 20:54:62
INDEX 01 20:57:62
TRACK 07 AUDIO
TITLE "明天你是否依然爱我"
PERFORMER "郑知明&马玉芬"
INDEX 00 25:07:12
INDEX 01 25:10:12
TRACK 08 AUDIO
TITLE "电话"
PERFORMER "黄小琥&陈复明"
INDEX 00 29:36:62
INDEX 01 29:39:62
TRACK 09 AUDIO
TITLE "谁应该与我相遇"
PERFORMER "于台烟&眭澔平"
INDEX 00 34:50:37
INDEX 01 34:53:37
TRACK 10 AUDIO
TITLE "东城故事 第一乐章 拥挤的心灵"
PERFORMER "曲佑良&郑怡&马玉芬"
INDEX 00 39:59:50
INDEX 01 40:02:50
TRACK 11 AUDIO
TITLE "东城故事 第二乐章 沙漠的风"
PERFORMER "郑怡&曲佑良&马玉芬"
INDEX 00 45:52:37
INDEX 01 45:55:37
TRACK 12 AUDIO
TITLE "东城故事 第三乐章 消失的地平线"
PERFORMER "马玉芬&郑怡&曲佑良"
INDEX 00 51:59:37
INDEX 01 52:02:37
群星.1995 - 爱情，勿语【可登】【WAV+CUE】.rar: https://url27.ctfile.com/f/9388027-743536567-174e6c?p=559675
(访问密码: 559675)
原文：[链接](https://blog.sina.com.cn/s/blog_1647c7e76010310jm.html)